<svg xmlns="http://www.w3.org/2000/svg" version="1.1" xmlns:xlink="http://www.w3.org/1999/xlink" width="512" height="512" x="0" y="0" viewBox="0 0 512 512" style="enable-background:new 0 0 512 512" xml:space="preserve" class=""><g><path fill="#fff780" d="M419.25 277.977H92.75a15.07 15.07 0 0 1-12.457-6.586C37.215 208.219 33.91 86.699 33.66 68.66a96.797 96.797 0 0 1-.023-2.134c0-8.316 6.734-15.062 15.05-15.078h.032c8.3 0 15.047 6.715 15.078 15.02 0 .101.004.992.039 2.57 1.328 42.902 36.644 77.39 79.863 77.39 44.059 0 79.903-35.843 79.903-79.902 0-8.328 6.753-15.078 15.078-15.078h34.636c8.329 0 15.079 6.75 15.079 15.078 0 44.059 35.847 79.903 79.906 79.903 43.258 0 78.597-34.551 79.867-77.508.027-1.508.035-2.352.035-2.45.031-8.308 6.774-15.023 15.078-15.023h.028c8.316.016 15.05 6.762 15.05 15.078 0 .715-.007 1.426-.02 2.137-.253 18.035-3.558 139.559-46.632 202.73a15.082 15.082 0 0 1-12.457 6.583zm0 0" opacity="1" data-original="#fff780"></path><path fill="#ffc02e" d="M463.309 51.45h-.028c-8.3 0-15.047 6.714-15.078 15.019 0 .101-.004.945-.035 2.453-1.27 42.953-36.61 77.508-79.867 77.508-44.059 0-79.903-35.844-79.903-79.903 0-8.328-6.753-15.078-15.078-15.078h-17.316v226.524H419.25c4.988 0 9.648-2.465 12.457-6.582 43.078-63.172 46.383-184.696 46.633-202.73.015-.708.023-1.423.023-2.134-.004-8.316-6.738-15.062-15.054-15.078zm0 0" opacity="1" data-original="#ffc02e" class=""></path><path fill="#ffc02e" d="M256 0c-26.863 0-48.719 21.855-48.719 48.719S229.137 97.434 256 97.434s48.719-21.852 48.719-48.715S282.863 0 256 0zm0 0" opacity="1" data-original="#ffc02e" class=""></path><path fill="#ffa73b" d="M256.004 0v97.438c26.863-.004 48.715-21.856 48.715-48.72S282.863.005 256.004 0zm0 0" opacity="1" data-original="#ffa73b" class=""></path><path fill="#ffc02e" d="M48.719 37.598C21.855 37.598 0 59.453 0 86.316c0 26.864 21.855 48.72 48.719 48.72s48.715-21.856 48.715-48.72c0-26.863-21.852-48.718-48.715-48.718zm0 0" opacity="1" data-original="#ffc02e" class=""></path><path fill="#ffa73b" d="M463.281 37.598c-26.863 0-48.715 21.855-48.715 48.718 0 26.86 21.852 48.715 48.715 48.715S512 113.176 512 86.316c0-26.863-21.855-48.718-48.719-48.718zm0 0" opacity="1" data-original="#ffa73b" class=""></path><path fill="#ffc02e" d="M419.25 327.441H92.75c-8.328 0-15.078-6.75-15.078-15.078v-44.965h356.656v44.965c0 8.328-6.75 15.078-15.078 15.078zm0 0" opacity="1" data-original="#ffc02e" class=""></path><path fill="#ffa73b" d="M256.004 327.441H419.25c8.328 0 15.078-6.75 15.078-15.078v-44.965H256.004zm0 0" opacity="1" data-original="#ffa73b" class=""></path></g></svg>