<svg width="16" height="16" viewBox="0 0 16 16" fill="none" xmlns="http://www.w3.org/2000/svg">
    <path fill-rule="evenodd" clip-rule="evenodd" d="M12.913 10.7943C12.8808 10.6942 12.8177 10.607 12.7327 10.5451C12.6478 10.4832 12.5454 10.4498 12.4403 10.4498C12.3352 10.4498 12.2328 10.4832 12.1478 10.5451C12.0629 10.607 11.9998 10.6942 11.9676 10.7943L11.4948 12.2431L10.0468 12.7141C9.84276 12.7808 9.70342 12.9718 9.70342 13.1873C9.70342 13.4028 9.84276 13.5939 10.0468 13.6605L11.4948 14.1315L11.9676 15.5803C11.9998 15.6804 12.0629 15.7676 12.1478 15.8295C12.2328 15.8914 12.3352 15.9248 12.4403 15.9248C12.5454 15.9248 12.6478 15.8914 12.7327 15.8295C12.8177 15.7676 12.8808 15.6804 12.913 15.5803L13.3857 14.1315L14.8338 13.6605C15.0378 13.5939 15.1771 13.4028 15.1771 13.1873C15.1771 12.9718 15.0378 12.7808 14.8338 12.7141L13.3857 12.2431L12.913 10.7943ZM9.24293e-08 9.20617C9.24293e-08 9.56967 0.233877 9.89287 0.579717 10.0053L4.23467 11.1931L5.42148 14.8463C5.47638 15.0149 5.58321 15.1618 5.72667 15.2659C5.87013 15.3701 6.04286 15.4262 6.22014 15.4262C6.39742 15.4262 6.57016 15.3701 6.71361 15.2659C6.85707 15.1618 6.9639 15.0149 7.01881 14.8463L8.2081 11.1931L11.8606 10.0053C12.0291 9.95036 12.176 9.84348 12.2801 9.69998C12.3842 9.55648 12.4403 9.38372 12.4403 9.20642C12.4403 8.84266 12.2064 8.51996 11.8606 8.4075L8.2081 7.2197L7.01881 3.56649C6.96403 3.3978 6.85725 3.25079 6.71378 3.14653C6.5703 3.04227 6.3975 2.98612 6.22014 2.98612C6.04279 2.98612 5.86998 3.04227 5.72651 3.14653C5.58303 3.25079 5.47625 3.3978 5.42148 3.56649L4.23467 7.2197L0.579717 8.4075C0.411133 8.46236 0.264244 8.56918 0.160103 8.71265C0.0559623 8.85612 -8.3076e-05 9.02888 9.24293e-08 9.20617ZM6.22014 4.32783L7.33977 7.76832C7.38704 7.91984 7.50647 8.03852 7.65824 8.08779L11.0992 9.20642L7.65824 10.325C7.50647 10.3743 7.38704 10.493 7.33977 10.6445L6.22014 14.085L5.10052 10.6445C5.0768 10.5697 5.03551 10.5017 4.98011 10.4461C4.9247 10.3905 4.85678 10.349 4.78205 10.325L1.34106 9.20642L4.78205 8.08779C4.85678 8.06384 4.9247 8.02234 4.98011 7.96676C5.03551 7.91118 5.0768 7.84313 5.10052 7.76832L6.22014 4.32783ZM12.6642 0.344454C12.632 0.244401 12.5689 0.157146 12.4839 0.0952475C12.399 0.0333492 12.2966 0 12.1915 0C12.0864 0 11.984 0.0333492 11.899 0.0952475C11.8141 0.157146 11.751 0.244401 11.7188 0.344454L11.0022 2.54415L8.80275 3.25946C8.59873 3.32614 8.45939 3.51723 8.45939 3.73269C8.45939 3.94816 8.59873 4.13924 8.80275 4.20592L11.0022 4.92124L11.7188 7.12093C11.751 7.22098 11.8141 7.30824 11.899 7.37013C11.984 7.43203 12.0864 7.46538 12.1915 7.46538C12.2966 7.46538 12.399 7.43203 12.4839 7.37013C12.5689 7.30824 12.632 7.22098 12.6642 7.12093L13.3808 4.92124L15.5802 4.20592C15.7842 4.13924 15.9236 3.94816 15.9236 3.73269C15.9236 3.51723 15.7842 3.32614 15.5802 3.25946L13.3808 2.54415L12.6642 0.344454ZM1.99045 3.23508H1.49283C1.21915 3.23508 0.995223 3.45801 0.995223 3.73269C0.995223 4.00737 1.21915 4.2303 1.49283 4.2303H1.99045V4.72791C1.99045 5.0026 2.21437 5.22553 2.48806 5.22553C2.76174 5.22553 2.98567 5.0026 2.98567 4.72791V4.2303H3.48328C3.75697 4.2303 3.98089 4.00737 3.98089 3.73269C3.98089 3.45801 3.75697 3.23508 3.48328 3.23508H2.98567V2.73747C2.98567 2.46279 2.76174 2.23986 2.48806 2.23986C2.21437 2.23986 1.99045 2.46279 1.99045 2.73747V3.23508Z" fill="#6C5CE7"/>
</svg>
