<svg width="24" height="25" viewBox="0 0 24 25" fill="none" xmlns="http://www.w3.org/2000/svg">
    <path d="M11.6297 19.769C11.6301 18.5334 11.9708 17.3206 12.616 16.2584C13.2612 15.1962 14.1871 14.3238 15.2962 13.733C16.4052 13.1421 17.6565 12.8547 18.9185 12.9009C20.1804 12.9471 21.4062 13.3253 22.4671 13.9956C22.4746 13.4863 22.4785 12.9429 22.4785 12.3564C22.4785 9.3413 22.3738 7.45947 22.1667 5.51025H22.1961C22.0816 4.42408 21.6577 3.39121 20.9727 2.52924C20.2876 1.66728 19.369 1.01087 18.3214 0.634765C18.266 0.614257 18.2106 0.594726 18.1547 0.576172C17.7407 0.439996 17.3126 0.34879 16.8782 0.304199L16.8368 0.299804C15.1796 0.133301 14.9137 0 11.4192 0C7.92465 0 7.35928 0.133301 5.70359 0.302246L5.66218 0.30664C5.20618 0.353499 4.75726 0.451808 4.32435 0.599609V0.577636C3.24493 0.936756 2.29337 1.59119 1.58246 2.46337C0.871562 3.33554 0.431128 4.38889 0.313373 5.49853C0.105788 7.45165 0 9.33544 0 12.3564C0 15.3774 0.105788 17.2612 0.313373 19.2143C0.455121 20.5471 1.06101 21.7917 2.02938 22.7391C2.99774 23.6866 4.26967 24.2794 5.63174 24.418L5.67315 24.4223C7.33034 24.5913 7.59581 24.7246 11.0903 24.7246C12.248 24.7246 13.0863 24.7099 13.7445 24.6841C13.0742 24.0447 12.5418 23.2803 12.1785 22.4361C11.8153 21.5919 11.6287 20.685 11.6297 19.769ZM5.79142 6.50146H16.6851C17.0004 6.50146 17.3027 6.624 17.5256 6.84212C17.7485 7.06024 17.8738 7.35608 17.8738 7.66455C17.8738 7.97301 17.7485 8.26885 17.5256 8.48697C17.3027 8.70509 17.0004 8.82763 16.6851 8.82763H5.79391C5.47867 8.82763 5.17634 8.70509 4.95343 8.48697C4.73052 8.26885 4.60529 7.97301 4.60529 7.66455C4.60529 7.35608 4.73052 7.06024 4.95343 6.84212C5.17634 6.624 5.47867 6.50146 5.79391 6.50146H5.79142ZM5.79142 13.8047C5.48033 13.7984 5.18413 13.6731 4.96637 13.4556C4.74862 13.2382 4.62665 12.9458 4.62665 12.6413C4.62665 12.3369 4.74862 12.0445 4.96637 11.827C5.18413 11.6096 5.48033 11.4843 5.79142 11.478H12.0045C12.1627 11.4748 12.3199 11.5026 12.467 11.5596C12.6141 11.6167 12.748 11.7019 12.861 11.8102C12.974 11.9185 13.0638 12.0478 13.1251 12.1906C13.1864 12.3333 13.218 12.4865 13.218 12.6413C13.218 12.7962 13.1864 12.9494 13.1251 13.0921C13.0638 13.2348 12.974 13.3642 12.861 13.4725C12.748 13.5808 12.6141 13.666 12.467 13.7231C12.3199 13.7801 12.1627 13.8078 12.0045 13.8047H5.79142Z" fill="#9DB2CE"/>
    <path d="M18.6542 14.5381C17.5969 14.5381 16.5633 14.8449 15.6842 15.4197C14.8051 15.9945 14.1199 16.8114 13.7153 17.7673C13.3107 18.7231 13.2048 19.7749 13.4111 20.7896C13.6173 21.8043 14.1265 22.7364 14.8741 23.4679C15.6217 24.1995 16.5743 24.6977 17.6112 24.8995C18.6482 25.1013 19.7231 24.9978 20.6999 24.6018C21.6767 24.2059 22.5116 23.5355 23.099 22.6752C23.6864 21.815 24 20.8037 24 19.7691C24 18.3817 23.4368 17.0512 22.4342 16.0702C21.4317 15.0892 20.072 14.5381 18.6542 14.5381ZM20.7729 20.5347H18.5479C18.3791 20.5347 18.2173 20.4691 18.098 20.3524C17.9787 20.2356 17.9116 20.0772 17.9116 19.9121V16.5674C17.9116 16.4023 17.9787 16.2439 18.098 16.1272C18.2173 16.0104 18.3791 15.9449 18.5479 15.9449C18.7166 15.9449 18.8784 16.0104 18.9978 16.1272C19.1171 16.2439 19.1841 16.4023 19.1841 16.5674V19.2896H20.7729C20.9417 19.2896 21.1035 19.3552 21.2228 19.4719C21.3421 19.5887 21.4092 19.747 21.4092 19.9121C21.4092 20.0772 21.3421 20.2356 21.2228 20.3524C21.1035 20.4691 20.9417 20.5347 20.7729 20.5347Z" fill="#9DB2CE"/>
</svg>
