<svg width="20" height="24" viewBox="0 0 20 24" fill="none" xmlns="http://www.w3.org/2000/svg">
    <path d="M7.67391 4.6589L8.36402 6.57036C8.74269 7.61824 9.34847 8.5699 10.1382 9.35752C10.9279 10.1451 11.8821 10.7493 12.9327 11.127L14.8492 11.8153C14.8871 11.8291 14.9197 11.8542 14.9428 11.8872C14.9659 11.9201 14.9783 11.9594 14.9783 11.9996C14.9783 12.0398 14.9659 12.079 14.9428 12.112C14.9197 12.1449 14.8871 12.17 14.8492 12.1839L12.9327 12.8722C11.8821 13.2498 10.9279 13.854 10.1382 14.6416C9.34847 15.4292 8.74269 16.3809 8.36402 17.4288L7.67391 19.3402C7.66003 19.378 7.63487 19.4106 7.60182 19.4336C7.56878 19.4566 7.52944 19.469 7.48913 19.469C7.44883 19.469 7.40949 19.4566 7.37644 19.4336C7.3434 19.4106 7.31824 19.378 7.30436 19.3402L6.61424 17.4288C6.23557 16.3809 5.6298 15.4292 4.84009 14.6416C4.05039 13.854 3.09621 13.2498 2.04556 12.8722L0.129049 12.1839C0.0912058 12.17 0.058536 12.1449 0.0354562 12.112C0.0123765 12.079 0 12.0398 0 11.9996C0 11.9594 0.0123765 11.9201 0.0354562 11.8872C0.058536 11.8542 0.0912058 11.8291 0.129049 11.8153L2.04556 11.127C3.09621 10.7493 4.05039 10.1451 4.84009 9.35752C5.6298 8.5699 6.23557 7.61824 6.61424 6.57036L7.30436 4.6589C7.31785 4.62078 7.34287 4.58776 7.37596 4.56441C7.40905 4.54106 7.4486 4.52852 7.48913 4.52852C7.52967 4.52852 7.56921 4.54106 7.60231 4.56441C7.6354 4.58776 7.66042 4.62078 7.67391 4.6589ZM16.3008 0.0654126L16.6506 1.03314C16.8425 1.56369 17.1493 2.04553 17.5492 2.44436C17.9491 2.84318 18.4322 3.14919 18.9641 3.3406L19.9344 3.68946C19.9536 3.69644 19.9702 3.70915 19.982 3.72586C19.9937 3.74258 20 3.76249 20 3.78289C20 3.80329 19.9937 3.8232 19.982 3.83992C19.9702 3.85663 19.9536 3.86934 19.9344 3.87632L18.9641 4.22518C18.4322 4.41659 17.9491 4.7226 17.5492 5.12142C17.1493 5.52025 16.8425 6.00209 16.6506 6.53264L16.3008 7.50037C16.2938 7.51954 16.281 7.5361 16.2643 7.5478C16.2475 7.5595 16.2276 7.56578 16.2071 7.56578C16.1866 7.56578 16.1667 7.5595 16.1499 7.5478C16.1332 7.5361 16.1204 7.51954 16.1134 7.50037L15.7636 6.53264C15.5717 6.00209 15.2649 5.52025 14.865 5.12142C14.4651 4.7226 13.982 4.41659 13.4501 4.22518L12.4798 3.87632C12.4606 3.86934 12.444 3.85663 12.4322 3.83992C12.4205 3.8232 12.4142 3.80329 12.4142 3.78289C12.4142 3.76249 12.4205 3.74258 12.4322 3.72586C12.444 3.70915 12.4606 3.69644 12.4798 3.68946L13.4501 3.3406C13.982 3.14919 14.4651 2.84318 14.865 2.44436C15.2649 2.04553 15.5717 1.56369 15.7636 1.03314L16.1134 0.0654126C16.1204 0.0462408 16.1332 0.0296805 16.1499 0.0179787C16.1667 0.00627688 16.1866 0 16.2071 0C16.2276 0 16.2475 0.00627688 16.2643 0.0179787C16.281 0.0296805 16.2938 0.0462408 16.3008 0.0654126ZM16.3008 16.4996L16.6506 17.4674C16.8425 17.9979 17.1493 18.4797 17.5492 18.8786C17.9491 19.2774 18.4322 19.5834 18.9641 19.7748L19.9344 20.1237C19.9536 20.1307 19.9702 20.1434 19.982 20.1601C19.9937 20.1768 20 20.1967 20 20.2171C20 20.2375 19.9937 20.2574 19.982 20.2741C19.9702 20.2908 19.9536 20.3036 19.9344 20.3105L18.9641 20.6594C18.4322 20.8508 17.9491 21.1568 17.5492 21.5556C17.1493 21.9545 16.8425 22.4363 16.6506 22.9669L16.3008 23.9346C16.2938 23.9538 16.281 23.9703 16.2643 23.982C16.2475 23.9937 16.2276 24 16.2071 24C16.1866 24 16.1667 23.9937 16.1499 23.982C16.1332 23.9703 16.1204 23.9538 16.1134 23.9346L15.7636 22.9669C15.5717 22.4363 15.2649 21.9545 14.865 21.5556C14.4651 21.1568 13.982 20.8508 13.4501 20.6594L12.4798 20.3105C12.4606 20.3036 12.444 20.2908 12.4322 20.2741C12.4205 20.2574 12.4142 20.2375 12.4142 20.2171C12.4142 20.1967 12.4205 20.1768 12.4322 20.1601C12.444 20.1434 12.4606 20.1307 12.4798 20.1237L13.4501 19.7748C13.982 19.5834 14.4651 19.2774 14.865 18.8786C15.2649 18.4797 15.5717 17.9979 15.7636 17.4674L16.1134 16.4996C16.1452 16.4122 16.2698 16.4122 16.3008 16.4996Z" fill="url(#paint0_linear_24_877)"/>
    <defs>
        <linearGradient id="paint0_linear_24_877" x1="20" y1="12" x2="0" y2="12" gradientUnits="userSpaceOnUse">
            <stop stop-color="#6F3FE3"/>
            <stop offset="1" stop-color="#44A7D8"/>
        </linearGradient>
    </defs>
</svg>
