<svg width="20" height="20" viewBox="0 0 20 20" fill="none" xmlns="http://www.w3.org/2000/svg">
    <path fill-rule="evenodd" clip-rule="evenodd" d="M2.72727 1.81819C2.48617 1.81819 2.25494 1.91396 2.08445 2.08445C1.91396 2.25494 1.81818 2.48617 1.81818 2.72728V17.2728C1.81818 17.5139 1.91396 17.7451 2.08445 17.9156C2.25494 18.0861 2.48617 18.1819 2.72727 18.1819H17.2727C17.5138 18.1819 17.7451 18.0861 17.9156 17.9156C18.086 17.7451 18.1818 17.5139 18.1818 17.2728V13.1818H20V17.2728C20 17.9961 19.7127 18.6898 19.2012 19.2012C18.6897 19.7127 17.996 20 17.2727 20H2.72727C2.00396 20 1.31026 19.7127 0.7988 19.2012C0.287337 18.6898 0 17.9961 0 17.2728V2.72728C0 2.00396 0.287337 1.31027 0.7988 0.798801C1.31026 0.287337 2.00396 0 2.72727 0H6.81818V1.81819H2.72727Z" fill="url(#paint0_linear_24_869)"/>
    <path fill-rule="evenodd" clip-rule="evenodd" d="M7.49349 12.8864C7.2458 12.5816 6.93521 12.3339 6.58295 12.1602C6.2307 11.9866 5.84509 11.891 5.45251 11.8801C5.05992 11.8693 4.66961 11.9433 4.30828 12.0972C3.94695 12.2511 3.62312 12.4812 3.35894 12.7718L0.236214 16.2064C0.0907015 16.3665 0.00709723 16.5734 0.000431674 16.7897C-0.00623388 17.006 0.0644765 17.2175 0.199851 17.3864L2.01803 19.6591C2.10315 19.7654 2.21105 19.8512 2.33379 19.9102C2.45652 19.9693 2.59094 19.9999 2.72712 20H11.3635C11.5352 19.9999 11.7034 19.9512 11.8486 19.8594C11.9937 19.7677 12.11 19.6367 12.1838 19.4817C12.2576 19.3266 12.286 19.1539 12.2656 18.9833C12.2453 18.8128 12.1771 18.6516 12.0689 18.5182L7.49349 12.8864Z" fill="url(#paint1_linear_24_869)"/>
    <path fill-rule="evenodd" clip-rule="evenodd" d="M15.9363 15.1055C15.4469 14.6162 14.79 14.3313 14.0984 14.3083C13.4068 14.2854 12.7324 14.5261 12.2117 14.9818L9.85625 17.0428C9.70481 17.1752 9.6016 17.3542 9.56277 17.5516C9.52395 17.749 9.55171 17.9537 9.64171 18.1337L10.0963 19.0428C10.1717 19.1937 10.2877 19.3207 10.4312 19.4095C10.5748 19.4983 10.7402 19.5454 10.909 19.5455H18.1817C18.3615 19.5455 18.5372 19.4921 18.6867 19.3922C18.8361 19.2923 18.9526 19.1504 19.0214 18.9843C19.0902 18.8182 19.1082 18.6354 19.0731 18.4591C19.0381 18.2828 18.9515 18.1208 18.8244 17.9937L15.9363 15.1055ZM13.1817 0C11.3734 0 9.63918 0.718343 8.36052 1.997C7.08187 3.27566 6.36353 5.0099 6.36353 6.81819C6.36353 8.62649 7.08187 10.3607 8.36052 11.6394C9.63918 12.918 11.3734 13.6364 13.1817 13.6364C14.99 13.6364 16.7242 12.918 18.0029 11.6394C19.2815 10.3607 19.9999 8.62649 19.9999 6.81819C19.9999 5.0099 19.2815 3.27566 18.0029 1.997C16.7242 0.718343 14.99 0 13.1817 0ZM12.2726 5.37637V9.54547H14.0908V5.37637L15.2663 6.55183L16.5517 5.26637L13.8244 2.5391C13.654 2.36867 13.4228 2.27293 13.1817 2.27293C12.9406 2.27293 12.7095 2.36867 12.539 2.5391L9.81171 5.26637L11.0972 6.55183L12.2726 5.37637Z" fill="url(#paint2_linear_24_869)"/>
    <defs>
        <linearGradient id="paint0_linear_24_869" x1="20" y1="10" x2="0" y2="10" gradientUnits="userSpaceOnUse">
            <stop stop-color="#6F3FE3"/>
            <stop offset="1" stop-color="#44A7D8"/>
        </linearGradient>
        <linearGradient id="paint1_linear_24_869" x1="12.272" y1="15.9396" x2="0" y2="15.9396" gradientUnits="userSpaceOnUse">
            <stop stop-color="#6F3FE3"/>
            <stop offset="1" stop-color="#44A7D8"/>
        </linearGradient>
        <linearGradient id="paint2_linear_24_869" x1="19.9999" y1="9.77274" x2="6.36353" y2="9.77274" gradientUnits="userSpaceOnUse">
            <stop stop-color="#6F3FE3"/>
            <stop offset="1" stop-color="#44A7D8"/>
        </linearGradient>
    </defs>
</svg>
